<svg width="1600" height="900" viewBox="0 0 1600 900" fill="none" xmlns="http://www.w3.org/2000/svg">
  <rect width="1600" height="900" fill="#06070A"/>
  <g opacity="0.9">
    <circle cx="268" cy="154" r="228" fill="#F48C4D" fill-opacity="0.18"/>
    <circle cx="1320" cy="182" r="244" fill="#8EA7FF" fill-opacity="0.22"/>
    <circle cx="826" cy="698" r="366" fill="#2A3B61" fill-opacity="0.36"/>
  </g>
  <path d="M0 648C192 582 333 540 508 540C723 540 818 690 1024 690C1194 690 1340 592 1600 476V900H0V648Z" fill="url(#paint0_linear)"/>
  <path d="M0 716C187 644 369 596 575 596C760 596 846 736 1048 736C1237 736 1368 650 1600 558V900H0V716Z" fill="#090E17" fill-opacity="0.78"/>
  <g opacity="0.7">
    <rect x="118" y="142" width="420" height="236" rx="32" fill="white" fill-opacity="0.05" stroke="white" stroke-opacity="0.08"/>
    <rect x="168" y="200" width="262" height="26" rx="13" fill="white" fill-opacity="0.85"/>
    <rect x="168" y="248" width="198" height="18" rx="9" fill="white" fill-opacity="0.24"/>
    <rect x="168" y="290" width="144" height="44" rx="22" fill="#8EA7FF"/>
  </g>
  <defs>
    <linearGradient id="paint0_linear" x1="768" y1="540" x2="768" y2="900" gradientUnits="userSpaceOnUse">
      <stop stop-color="#121B2C" stop-opacity="0.1"/>
      <stop offset="1" stop-color="#0B1220"/>
    </linearGradient>
  </defs>
</svg>
